<svg width="400" height="400" viewBox="0 0 400 400" fill="none" xmlns="http://www.w3.org/2000/svg">
<path d="M289.583 383.333V314.583H110.417C103.75 314.583 97.9167 312.083 92.9167 307.083C87.9167 302.083 85.4167 296.25 85.4167 289.583V110.417H16.6667V85.4167H85.4167V16.6667H110.417V289.583H383.333V314.583H314.583V383.333H289.583ZM289.583 264.583V110.417H135.417V85.4167H289.583C296.25 85.4167 302.083 87.9167 307.083 92.9167C312.083 97.9167 314.583 103.75 314.583 110.417V264.583H289.583Z" fill="#00F0FF"/>
<path d="M194.583 174.583H266.458C262.569 164.306 256.389 155.243 247.917 147.396C239.444 139.549 229.792 134.167 218.958 131.25L194.583 174.583ZM175.208 191.875L211.458 129.583C209.792 129.444 207.917 129.34 205.833 129.271C203.75 129.201 201.806 129.167 200 129.167C190 129.167 180.833 130.972 172.5 134.583C164.167 138.194 156.667 143.194 150 149.583L175.208 191.875ZM131.25 218.125H180.625L145.208 155C139.931 161.25 135.938 168.229 133.229 175.938C130.521 183.646 129.167 191.667 129.167 200C129.167 202.917 129.306 205.972 129.583 209.167C129.861 212.361 130.417 215.347 131.25 218.125V218.125ZM181.25 268.542L206.25 225.417H133.75C137.639 235.694 143.785 244.757 152.188 252.604C160.59 260.451 170.278 265.764 181.25 268.542ZM200 270.833C210 270.833 219.201 269.028 227.604 265.417C236.007 261.806 243.472 256.806 250 250.417L225 208.125L188.542 270.417C190.347 270.556 192.257 270.66 194.271 270.729C196.285 270.799 198.194 270.833 200 270.833ZM255 245C259.722 239.167 263.542 232.292 266.458 224.375C269.375 216.458 270.833 208.333 270.833 200C270.833 196.944 270.694 193.854 270.417 190.729C270.139 187.604 269.653 184.583 268.958 181.667H219.583L255 245ZM200 283.333C188.611 283.333 177.847 281.146 167.708 276.771C157.569 272.396 148.715 266.424 141.146 258.854C133.576 251.285 127.604 242.431 123.229 232.292C118.854 222.153 116.667 211.389 116.667 200C116.667 188.472 118.854 177.674 123.229 167.604C127.604 157.535 133.576 148.715 141.146 141.146C148.715 133.576 157.569 127.604 167.708 123.229C177.847 118.854 188.611 116.667 200 116.667C211.528 116.667 222.326 118.854 232.396 123.229C242.465 127.604 251.285 133.576 258.854 141.146C266.424 148.715 272.396 157.535 276.771 167.604C281.146 177.674 283.333 188.472 283.333 200C283.333 211.389 281.146 222.153 276.771 232.292C272.396 242.431 266.424 251.285 258.854 258.854C251.285 266.424 242.465 272.396 232.396 276.771C222.326 281.146 211.528 283.333 200 283.333Z" fill="#00F0FF"/>
</svg>
